<svg width="232" height="231" viewBox="0 0 232 231" fill="none" xmlns="http://www.w3.org/2000/svg">
<path id="Asterisk 1" d="M3.52961 162.75C6.73181 169.465 11.8656 174.656 17.962 177.969C27.1367 182.955 38.4735 183.675 48.5897 178.948C48.6155 178.941 48.6409 178.932 48.6658 178.921C48.6899 178.91 48.714 178.9 48.7372 178.888L48.7732 178.87C48.7977 178.859 48.8214 178.846 48.8446 178.835L84.8728 161.685L90.0853 201.245C90.0888 201.287 90.097 201.322 90.1029 201.359C90.1059 201.377 90.108 201.394 90.11 201.413C92.6342 219.92 109.713 232.975 128.244 230.537C146.789 228.108 159.907 211.054 157.559 192.508L157.556 192.463C157.554 192.426 157.551 192.397 157.541 192.363L152.382 152.811L191.615 160.075C210.044 163.487 227.837 151.258 231.254 132.824C234.671 114.391 222.465 96.6057 204.029 93.1707L164.821 85.8638L183.869 50.7738C192.804 34.293 186.686 13.6022 170.22 4.65473C153.754 -4.29271 133.066 1.83204 124.092 18.3111L105.015 53.3468L77.5515 24.4252C77.5384 24.418 77.5239 24.4064 77.5102 24.393C77.4922 24.376 77.4753 24.3559 77.463 24.3384C64.5477 10.8151 43.0444 10.2823 29.4679 23.1574C15.8917 36.0317 15.2851 57.5217 28.0756 71.132C28.0876 71.1442 28.0977 71.1565 28.1072 71.1685L28.1506 71.2195L28.1709 71.2419L55.5953 100.199L19.6034 117.39C19.5878 117.401 19.5686 117.41 19.5494 117.419C19.5299 117.427 19.5107 117.436 19.4951 117.447C2.64235 125.559 -4.52216 145.868 3.52961 162.75Z" fill="#C7FFEE"/>
</svg>
