<svg width="392" height="75" viewBox="0 0 392 75" fill="none" xmlns="http://www.w3.org/2000/svg">
<path d="M0.556818 73V64.9034H2.6875C5.7178 64.9034 8.07339 63.9328 9.75426 61.9915C11.4351 60.0502 12.6425 56.9134 13.3764 52.581C14.134 48.2486 14.643 42.5076 14.9034 35.358L16.1818 0.272725H60.5V73H51.6932V8.08523H24.5625L23.4261 37.0625C23.142 44.6856 22.4437 51.1723 21.331 56.5227C20.2183 61.8731 18.2652 65.9569 15.4716 68.7741C12.678 71.5914 8.60606 73 3.25568 73H0.556818ZM99.1186 74.1364C94.1944 74.1364 89.8738 72.9645 86.157 70.6207C82.4638 68.277 79.5755 64.9981 77.4922 60.7841C75.4325 56.5701 74.4027 51.6458 74.4027 46.0114C74.4027 40.3295 75.4325 35.3698 77.4922 31.1321C79.5755 26.8944 82.4638 23.6037 86.157 21.2599C89.8738 18.9162 94.1944 17.7443 99.1186 17.7443C104.043 17.7443 108.352 18.9162 112.045 21.2599C115.762 23.6037 118.65 26.8944 120.71 31.1321C122.793 35.3698 123.835 40.3295 123.835 46.0114C123.835 51.6458 122.793 56.5701 120.71 60.7841C118.65 64.9981 115.762 68.277 112.045 70.6207C108.352 72.9645 104.043 74.1364 99.1186 74.1364ZM99.1186 66.608C102.859 66.608 105.937 65.6491 108.352 63.7315C110.766 61.8139 112.554 59.2926 113.714 56.1676C114.874 53.0426 115.454 49.6572 115.454 46.0114C115.454 42.3655 114.874 38.9683 113.714 35.8196C112.554 32.6709 110.766 30.1259 108.352 28.1847C105.937 26.2434 102.859 25.2727 99.1186 25.2727C95.3781 25.2727 92.3004 26.2434 89.8857 28.1847C87.4709 30.1259 85.6835 32.6709 84.5234 35.8196C83.3634 38.9683 82.7834 42.3655 82.7834 46.0114C82.7834 49.6572 83.3634 53.0426 84.5234 56.1676C85.6835 59.2926 87.4709 61.8139 89.8857 63.7315C92.3004 65.6491 95.3781 66.608 99.1186 66.608ZM170.292 18.4545V26.267H145.008V73H136.627V18.4545H170.292ZM201.853 74.1364C196.929 74.1364 192.608 72.9645 188.891 70.6207C185.198 68.277 182.31 64.9981 180.227 60.7841C178.167 56.5701 177.137 51.6458 177.137 46.0114C177.137 40.3295 178.167 35.3698 180.227 31.1321C182.31 26.8944 185.198 23.6037 188.891 21.2599C192.608 18.9162 196.929 17.7443 201.853 17.7443C206.777 17.7443 211.086 18.9162 214.779 21.2599C218.496 23.6037 221.384 26.8944 223.444 31.1321C225.527 35.3698 226.569 40.3295 226.569 46.0114C226.569 51.6458 225.527 56.5701 223.444 60.7841C221.384 64.9981 218.496 68.277 214.779 70.6207C211.086 72.9645 206.777 74.1364 201.853 74.1364ZM201.853 66.608C205.594 66.608 208.671 65.6491 211.086 63.7315C213.501 61.8139 215.288 59.2926 216.448 56.1676C217.608 53.0426 218.188 49.6572 218.188 46.0114C218.188 42.3655 217.608 38.9683 216.448 35.8196C215.288 32.6709 213.501 30.1259 211.086 28.1847C208.671 26.2434 205.594 25.2727 201.853 25.2727C198.112 25.2727 195.035 26.2434 192.62 28.1847C190.205 30.1259 188.418 32.6709 187.258 35.8196C186.098 38.9683 185.518 42.3655 185.518 46.0114C185.518 49.6572 186.098 53.0426 187.258 56.1676C188.418 59.2926 190.205 61.8139 192.62 63.7315C195.035 65.6491 198.112 66.608 201.853 66.608ZM232.233 26.267V18.4545H276.551V26.267H258.653V73H250.273V26.267H232.233ZM297.157 60.642L323.435 18.4545H333.094V73H324.713V30.8125L298.577 73H288.776V18.4545H297.157V60.642ZM348.444 73V18.4545H391.342V73H382.961V26.267H356.825V73H348.444Z" fill="black"/>
</svg>
