<svg width="126" height="25" viewBox="0 0 126 25" fill="none" xmlns="http://www.w3.org/2000/svg">
<path d="M0.818182 24V21.4091H1.5C2.4697 21.4091 3.22348 21.0985 3.76136 20.4773C4.29924 19.8561 4.68561 18.8523 4.92045 17.4659C5.16288 16.0795 5.32576 14.2424 5.40909 11.9545L5.81818 0.727272H20V24H17.1818V3.22727H8.5L8.13636 12.5C8.04545 14.9394 7.82197 17.0152 7.46591 18.7273C7.10985 20.4394 6.48485 21.7462 5.59091 22.6477C4.69697 23.5492 3.39394 24 1.68182 24H0.818182ZM32.358 24.3636C30.7822 24.3636 29.3996 23.9886 28.2102 23.2386C27.0284 22.4886 26.1042 21.4394 25.4375 20.0909C24.7784 18.7424 24.4489 17.1667 24.4489 15.3636C24.4489 13.5455 24.7784 11.9583 25.4375 10.6023C26.1042 9.24621 27.0284 8.19318 28.2102 7.44318C29.3996 6.69318 30.7822 6.31818 32.358 6.31818C33.9337 6.31818 35.3125 6.69318 36.4943 7.44318C37.6837 8.19318 38.608 9.24621 39.267 10.6023C39.9337 11.9583 40.267 13.5455 40.267 15.3636C40.267 17.1667 39.9337 18.7424 39.267 20.0909C38.608 21.4394 37.6837 22.4886 36.4943 23.2386C35.3125 23.9886 33.9337 24.3636 32.358 24.3636ZM32.358 21.9545C33.5549 21.9545 34.5398 21.6477 35.3125 21.0341C36.0852 20.4205 36.6572 19.6136 37.0284 18.6136C37.3996 17.6136 37.5852 16.5303 37.5852 15.3636C37.5852 14.197 37.3996 13.1098 37.0284 12.1023C36.6572 11.0947 36.0852 10.2803 35.3125 9.65909C34.5398 9.03788 33.5549 8.72727 32.358 8.72727C31.161 8.72727 30.1761 9.03788 29.4034 9.65909C28.6307 10.2803 28.0587 11.0947 27.6875 12.1023C27.3163 13.1098 27.1307 14.197 27.1307 15.3636C27.1307 16.5303 27.3163 17.6136 27.6875 18.6136C28.0587 19.6136 28.6307 20.4205 29.4034 21.0341C30.1761 21.6477 31.161 21.9545 32.358 21.9545ZM55.1335 6.54545V9.04545H47.0426V24H44.3608V6.54545H55.1335ZM65.233 24.3636C63.6572 24.3636 62.2746 23.9886 61.0852 23.2386C59.9034 22.4886 58.9792 21.4394 58.3125 20.0909C57.6534 18.7424 57.3239 17.1667 57.3239 15.3636C57.3239 13.5455 57.6534 11.9583 58.3125 10.6023C58.9792 9.24621 59.9034 8.19318 61.0852 7.44318C62.2746 6.69318 63.6572 6.31818 65.233 6.31818C66.8087 6.31818 68.1875 6.69318 69.3693 7.44318C70.5587 8.19318 71.483 9.24621 72.142 10.6023C72.8087 11.9583 73.142 13.5455 73.142 15.3636C73.142 17.1667 72.8087 18.7424 72.142 20.0909C71.483 21.4394 70.5587 22.4886 69.3693 23.2386C68.1875 23.9886 66.8087 24.3636 65.233 24.3636ZM65.233 21.9545C66.4299 21.9545 67.4148 21.6477 68.1875 21.0341C68.9602 20.4205 69.5322 19.6136 69.9034 18.6136C70.2746 17.6136 70.4602 16.5303 70.4602 15.3636C70.4602 14.197 70.2746 13.1098 69.9034 12.1023C69.5322 11.0947 68.9602 10.2803 68.1875 9.65909C67.4148 9.03788 66.4299 8.72727 65.233 8.72727C64.036 8.72727 63.0511 9.03788 62.2784 9.65909C61.5057 10.2803 60.9337 11.0947 60.5625 12.1023C60.1913 13.1098 60.0057 14.197 60.0057 15.3636C60.0057 16.5303 60.1913 17.6136 60.5625 18.6136C60.9337 19.6136 61.5057 20.4205 62.2784 21.0341C63.0511 21.6477 64.036 21.9545 65.233 21.9545ZM74.9545 9.04545V6.54545H89.1364V9.04545H83.4091V24H80.7273V9.04545H74.9545ZM95.7301 20.0455L104.139 6.54545H107.23V24H104.548V10.5L96.1847 24H93.0483V6.54545H95.7301V20.0455ZM112.142 24V6.54545H125.869V24H123.188V9.04545H114.824V24H112.142Z" fill="black"/>
</svg>
